<svg width="71" height="34" viewBox="0 0 71 34" fill="none" xmlns="http://www.w3.org/2000/svg">
<g clip-path="url(#clip0_203_4)">
<path d="M13.1641 5.77734C13.8151 5.81641 14.362 5.84896 14.8047 5.875C15.2604 5.88802 15.638 5.90104 15.9375 5.91406C16.276 5.92708 16.5625 5.92708 16.7969 5.91406C17.0312 5.90104 17.3503 5.86849 17.7539 5.81641C18.0924 5.77734 18.5417 5.71875 19.1016 5.64062C19.6745 5.54948 20.3841 5.43229 21.2305 5.28906C20.931 5.58854 20.6966 5.86198 20.5273 6.10938C20.3711 6.34375 20.2474 6.54557 20.1562 6.71484C20.0521 6.92318 19.9805 7.09896 19.9414 7.24219C19.9154 7.3724 19.9414 7.69792 20.0195 8.21875C20.0977 8.73958 20.2083 9.35807 20.3516 10.0742C20.4948 10.7773 20.651 11.5326 20.8203 12.3398C20.9896 13.1341 21.1589 13.8828 21.3281 14.5859C21.4974 15.276 21.6471 15.8685 21.7773 16.3633C21.9206 16.8451 22.0247 17.1315 22.0898 17.2227C22.2852 17.4961 22.4089 17.6784 22.4609 17.7695C22.513 17.8477 22.6042 17.9193 22.7344 17.9844C22.7865 18.0104 22.8711 18.0495 22.9883 18.1016C23.0924 18.1536 23.2292 18.2188 23.3984 18.2969C23.5807 18.375 23.8086 18.4661 24.082 18.5703C23.5742 18.5964 23.138 18.6159 22.7734 18.6289C22.4089 18.6289 22.1094 18.6354 21.875 18.6484C21.6016 18.6615 21.3672 18.6745 21.1719 18.6875C20.9766 18.6875 20.7422 18.7005 20.4688 18.7266C20.2344 18.7526 19.9284 18.7786 19.5508 18.8047C19.1862 18.8307 18.7565 18.8568 18.2617 18.8828C18.5221 18.7005 18.7305 18.5378 18.8867 18.3945C19.056 18.2383 19.1862 18.1081 19.2773 18.0039C19.3815 17.8737 19.4531 17.7565 19.4922 17.6523C19.5182 17.5352 19.5378 17.3594 19.5508 17.125C19.5638 16.9167 19.5638 16.6432 19.5508 16.3047C19.5378 15.9531 19.5052 15.4974 19.4531 14.9375L14.3164 15.4648C14.1862 15.6862 14.0885 15.8815 14.0234 16.0508C13.9583 16.207 13.9128 16.3438 13.8867 16.4609C13.8477 16.6042 13.8346 16.7214 13.8477 16.8125C13.8737 16.9167 13.9193 17.0404 13.9844 17.1836C14.0495 17.3138 14.1406 17.4701 14.2578 17.6523C14.388 17.8216 14.5768 18.0234 14.8242 18.2578C14.4987 18.2448 14.1667 18.2383 13.8281 18.2383C13.4896 18.2383 13.1771 18.2448 12.8906 18.2578C12.5521 18.2708 12.2201 18.2839 11.8945 18.2969C11.569 18.3099 11.1979 18.3294 10.7812 18.3555C10.4297 18.3815 10.0195 18.4141 9.55078 18.4531C9.06901 18.4792 8.55469 18.5182 8.00781 18.5703C8.34635 18.4141 8.63281 18.2578 8.86719 18.1016C9.10156 17.9323 9.29688 17.776 9.45312 17.6328C9.63542 17.4766 9.79167 17.3268 9.92188 17.1836C10.013 17.0534 10.1953 16.7539 10.4688 16.2852C10.7422 15.8034 11.0482 15.237 11.3867 14.5859C11.7383 13.9349 12.1029 13.2383 12.4805 12.4961C12.8711 11.7539 13.2227 11.0573 13.5352 10.4062C13.8477 9.74219 14.1016 9.16927 14.2969 8.6875C14.4922 8.20573 14.5898 7.89323 14.5898 7.75C14.5638 7.58073 14.4987 7.39193 14.3945 7.18359C14.3034 7.0013 14.1602 6.79297 13.9648 6.55859C13.7826 6.32422 13.5156 6.0638 13.1641 5.77734ZM19.2188 13.4922C19.1406 13.0365 19.069 12.6458 19.0039 12.3203C18.9388 11.9818 18.8867 11.7018 18.8477 11.4805C18.7956 11.2201 18.7565 10.9922 18.7305 10.7969C18.6914 10.6146 18.6458 10.3802 18.5938 10.0938C18.5417 9.84635 18.4766 9.54036 18.3984 9.17578C18.3333 8.79818 18.2487 8.34896 18.1445 7.82812C17.4023 9.3125 16.8229 10.4648 16.4062 11.2852C16.0026 12.0924 15.7096 12.6849 15.5273 13.0625C15.306 13.5052 15.1823 13.7656 15.1562 13.8438L19.2188 13.4922ZM22.168 9.01953C22.4284 9.05859 22.6628 9.09115 22.8711 9.11719C23.0664 9.13021 23.2422 9.14323 23.3984 9.15625C23.5677 9.16927 23.7305 9.17578 23.8867 9.17578C24.0299 9.17578 24.2122 9.16927 24.4336 9.15625C24.6159 9.14323 24.8503 9.13021 25.1367 9.11719C25.4362 9.09115 25.7878 9.05859 26.1914 9.01953C26.1654 9.07161 26.1133 9.23438 26.0352 9.50781C25.957 9.76823 25.8789 10.0938 25.8008 10.4844C25.7227 10.862 25.651 11.2852 25.5859 11.7539C25.5339 12.2096 25.5078 12.6654 25.5078 13.1211C25.5208 13.5638 25.5794 13.987 25.6836 14.3906C25.7878 14.7812 25.957 15.1003 26.1914 15.3477C26.6862 15.8555 27.1224 16.1615 27.5 16.2656C27.8906 16.3698 28.2292 16.3568 28.5156 16.2266C28.8021 16.0964 29.0365 15.901 29.2188 15.6406C29.401 15.3802 29.5312 15.1393 29.6094 14.918C29.8047 14.319 29.9219 13.6875 29.9609 13.0234C29.987 12.4505 29.9414 11.8125 29.8242 11.1094C29.707 10.4062 29.4271 9.6901 28.9844 8.96094C29.3229 8.98698 29.6159 9.00651 29.8633 9.01953C30.1107 9.03255 30.3255 9.04557 30.5078 9.05859C30.7161 9.07161 30.8984 9.08464 31.0547 9.09766C31.1979 9.11068 31.3672 9.11068 31.5625 9.09766C31.7318 9.09766 31.9336 9.09115 32.168 9.07812C32.4154 9.05208 32.6888 9.02604 32.9883 9C33.0404 10.276 33.0859 11.4154 33.125 12.418C33.1641 13.4076 33.1901 14.2865 33.2031 15.0547C33.2292 15.8099 33.2422 16.4674 33.2422 17.0273C33.2422 17.5742 33.2422 18.0365 33.2422 18.4141C33.2292 19.3125 33.1901 19.9049 33.125 20.1914C33.0208 20.5951 32.832 20.9987 32.5586 21.4023C32.2982 21.806 31.9661 22.1641 31.5625 22.4766C31.1589 22.8021 30.6901 23.0495 30.1562 23.2188C29.6354 23.401 29.0625 23.4661 28.4375 23.4141C27.8255 23.362 27.3372 23.2773 26.9727 23.1602C26.6211 23.056 26.3411 22.9323 26.1328 22.7891C25.9375 22.6458 25.7943 22.4961 25.7031 22.3398C25.625 22.1836 25.5664 22.0208 25.5273 21.8516C25.4883 21.6953 25.4492 21.5456 25.4102 21.4023C25.3711 21.2591 25.293 21.1354 25.1758 21.0312C25.0326 20.9141 24.8828 20.7969 24.7266 20.6797C24.5833 20.5755 24.4271 20.4714 24.2578 20.3672C24.1016 20.263 23.9453 20.1784 23.7891 20.1133L27.9492 19.8789C27.832 20.0352 27.7474 20.1784 27.6953 20.3086C27.6432 20.4388 27.6107 20.5495 27.5977 20.6406C27.5846 20.7578 27.5911 20.8555 27.6172 20.9336C27.6693 21.0898 27.7604 21.2591 27.8906 21.4414C28.0339 21.6367 28.2161 21.7865 28.4375 21.8906C28.6589 22.0078 28.9193 22.0469 29.2188 22.0078C29.5312 21.9688 29.8828 21.806 30.2734 21.5195C30.599 21.2721 30.8724 20.875 31.0938 20.3281C31.276 19.8594 31.4193 19.2018 31.5234 18.3555C31.6276 17.5091 31.6081 16.3958 31.4648 15.0156C31.2305 15.8229 30.9115 16.4414 30.5078 16.8711C30.1042 17.3008 29.7005 17.6133 29.2969 17.8086C28.8281 18.043 28.3398 18.1667 27.832 18.1797C27.1549 18.1536 26.5755 18.069 26.0938 17.9258C25.612 17.7695 25.2148 17.5612 24.9023 17.3008C24.5898 17.0404 24.3424 16.7344 24.1602 16.3828C23.9909 16.0182 23.8672 15.6146 23.7891 15.1719C23.7109 14.7292 23.6719 14.2865 23.6719 13.8438C23.6719 13.388 23.6719 12.9648 23.6719 12.5742C23.6849 12.1836 23.6914 11.832 23.6914 11.5195C23.6914 11.194 23.6589 10.9336 23.5938 10.7383C23.5156 10.543 23.4115 10.3477 23.2812 10.1523C23.1771 9.98307 23.0339 9.80078 22.8516 9.60547C22.6562 9.39714 22.4284 9.20182 22.168 9.01953ZM36.0156 11.0898C36.0807 11.0117 36.1198 10.8685 36.1328 10.6602C36.1589 10.4388 36.2109 10.1914 36.2891 9.91797C36.3802 9.64453 36.5299 9.35807 36.7383 9.05859C36.9466 8.75911 37.2852 8.47917 37.7539 8.21875C38.2096 7.95833 38.6523 7.80208 39.082 7.75C39.5117 7.69792 39.9219 7.71745 40.3125 7.80859C40.7031 7.89974 41.0677 8.04297 41.4062 8.23828C41.7578 8.43359 42.0768 8.64844 42.3633 8.88281C42.5586 9.03906 42.7148 9.26693 42.832 9.56641C42.9492 9.85286 43.0404 10.1784 43.1055 10.543C43.1706 10.9076 43.2161 11.2917 43.2422 11.6953C43.2812 12.0859 43.3073 12.4701 43.3203 12.8477C43.3333 13.2122 43.3398 13.5508 43.3398 13.8633C43.3529 14.1628 43.3789 14.4102 43.418 14.6055C43.4701 14.8919 43.5612 15.1393 43.6914 15.3477C43.8216 15.543 43.9648 15.7122 44.1211 15.8555C44.2773 15.9857 44.4336 16.0898 44.5898 16.168C44.7461 16.2461 44.8828 16.3047 45 16.3438C45.0781 16.3828 45.1497 16.4089 45.2148 16.4219C45.3451 16.474 45.4362 16.474 45.4883 16.4219C45.4102 16.6042 45.3385 16.7604 45.2734 16.8906C45.2083 17.0208 45.1562 17.1315 45.1172 17.2227C45.0651 17.3268 45.0195 17.4115 44.9805 17.4766C44.9414 17.5547 44.8958 17.6263 44.8438 17.6914C44.8047 17.7565 44.7526 17.8281 44.6875 17.9062C44.6224 17.9844 44.5573 18.069 44.4922 18.1602C44.3229 18.0951 44.1602 18.0169 44.0039 17.9258C43.8607 17.8346 43.7305 17.75 43.6133 17.6719C43.4701 17.5807 43.3398 17.4896 43.2227 17.3984C43.1055 17.3073 42.9948 17.2031 42.8906 17.0859C42.7995 16.9818 42.7018 16.8711 42.5977 16.7539C42.5065 16.6367 42.4284 16.5065 42.3633 16.3633C42.2852 16.5326 42.0964 16.7734 41.7969 17.0859C41.5104 17.3984 41.1328 17.6849 40.6641 17.9453C40.1953 18.1927 39.6484 18.3685 39.0234 18.4727C38.4115 18.5768 37.7344 18.5052 36.9922 18.2578C36.6667 18.1536 36.3607 18.0039 36.0742 17.8086C35.7878 17.6003 35.5404 17.3529 35.332 17.0664C35.1367 16.7799 34.9935 16.4544 34.9023 16.0898C34.8242 15.7122 34.8307 15.2956 34.9219 14.8398C35.013 14.3841 35.1758 14 35.4102 13.6875C35.6445 13.375 35.9245 13.1211 36.25 12.9258C36.5755 12.7305 36.9401 12.5807 37.3438 12.4766C37.7474 12.3724 38.1641 12.3008 38.5938 12.2617C38.9323 12.2487 39.2708 12.2682 39.6094 12.3203C39.8958 12.3724 40.1953 12.4701 40.5078 12.6133C40.8203 12.7435 41.0872 12.9453 41.3086 13.2188C41.2956 12.5286 41.2695 11.9818 41.2305 11.5781C41.2044 11.1615 41.1784 10.8424 41.1523 10.6211C41.1003 10.3607 41.0547 10.1784 41.0156 10.0742C40.9505 9.98307 40.8789 9.87891 40.8008 9.76172C40.7357 9.64453 40.651 9.54036 40.5469 9.44922C40.4427 9.34505 40.3125 9.26042 40.1562 9.19531C40 9.13021 39.8177 9.10417 39.6094 9.11719C39.388 9.13021 39.2122 9.1888 39.082 9.29297C38.9518 9.39714 38.8477 9.52083 38.7695 9.66406C38.7044 9.79427 38.6654 9.9375 38.6523 10.0938C38.6393 10.25 38.6458 10.3867 38.6719 10.5039C38.6979 10.582 38.737 10.6667 38.7891 10.7578C38.8411 10.8359 38.9128 10.9206 39.0039 11.0117C39.0951 11.1029 39.2188 11.181 39.375 11.2461C39.0755 11.2852 38.8086 11.3177 38.5742 11.3438C38.3398 11.3568 38.138 11.3763 37.9688 11.4023C37.7734 11.4284 37.6042 11.4479 37.4609 11.4609C37.3177 11.474 37.1484 11.5 36.9531 11.5391C36.7839 11.5651 36.5755 11.5977 36.3281 11.6367C36.0807 11.6758 35.7943 11.7279 35.4688 11.793C35.5469 11.7018 35.6185 11.6172 35.6836 11.5391C35.7487 11.4479 35.8073 11.3698 35.8594 11.3047C35.9115 11.2266 35.9635 11.1549 36.0156 11.0898ZM38.9453 13.4141C38.7109 13.4271 38.4766 13.4857 38.2422 13.5898C38.0078 13.681 37.7995 13.8177 37.6172 14C37.4349 14.1693 37.2786 14.3711 37.1484 14.6055C37.0312 14.8268 36.9727 15.0742 36.9727 15.3477C36.9727 15.6211 37.0378 15.862 37.168 16.0703C37.3112 16.2656 37.4935 16.4284 37.7148 16.5586C37.9492 16.6888 38.1966 16.7669 38.457 16.793C38.7305 16.819 38.9974 16.793 39.2578 16.7148C39.5052 16.6237 39.7396 16.4805 39.9609 16.2852C40.1823 16.0768 40.3711 15.8555 40.5273 15.6211C40.6836 15.3737 40.7943 15.1328 40.8594 14.8984C40.9245 14.651 40.931 14.4492 40.8789 14.293C40.7747 13.9544 40.5404 13.7201 40.1758 13.5898C39.8112 13.4466 39.401 13.388 38.9453 13.4141ZM45.0977 7.69141C45.6966 7.74349 46.224 7.78255 46.6797 7.80859C47.1484 7.82161 47.5391 7.84115 47.8516 7.86719C48.2161 7.89323 48.5352 7.91276 48.8086 7.92578C49.0951 7.9388 49.4596 7.9388 49.9023 7.92578C50.2799 7.92578 50.7617 7.91927 51.3477 7.90625C51.9466 7.88021 52.6758 7.84115 53.5352 7.78906L53.3789 10.5039C53.0013 10.8815 52.6628 11.2331 52.3633 11.5586C52.0768 11.8841 51.8229 12.1641 51.6016 12.3984C51.3542 12.6719 51.1328 12.9193 50.9375 13.1406C50.7422 13.375 50.5208 13.6549 50.2734 13.9805C50.0521 14.2669 49.7852 14.6185 49.4727 15.0352C49.1602 15.4388 48.8021 15.9141 48.3984 16.4609C49.1146 16.4219 49.7005 16.3828 50.1562 16.3438C50.612 16.2917 50.9701 16.2461 51.2305 16.207C51.543 16.1549 51.7708 16.1159 51.9141 16.0898C52.0443 16.0378 52.194 15.9271 52.3633 15.7578C52.5065 15.6146 52.6823 15.3997 52.8906 15.1133C53.099 14.8268 53.3333 14.4362 53.5938 13.9414C53.5938 14.3451 53.5938 14.6901 53.5938 14.9766C53.6068 15.25 53.6133 15.4779 53.6133 15.6602V16.1875V16.6367C53.6133 16.7799 53.6133 16.9557 53.6133 17.1641C53.6263 17.3724 53.6393 17.6068 53.6523 17.8672C53.1445 17.8021 52.6823 17.7565 52.2656 17.7305C51.849 17.6914 51.4909 17.6654 51.1914 17.6523C50.8398 17.6393 50.5208 17.6393 50.2344 17.6523C49.9479 17.6784 49.5898 17.7044 49.1602 17.7305C48.7956 17.7565 48.3464 17.7826 47.8125 17.8086C47.2786 17.8346 46.6471 17.8672 45.918 17.9062L45.4883 15.8359C45.7227 15.7318 46.0026 15.5299 46.3281 15.2305C46.6536 14.931 46.9661 14.625 47.2656 14.3125C47.6042 13.9479 47.9622 13.5508 48.3398 13.1211C48.7044 12.6914 49.0625 12.2617 49.4141 11.832C49.7135 11.4674 50.026 11.0898 50.3516 10.6992C50.6901 10.3086 50.9831 9.96354 51.2305 9.66406C50.5273 9.6901 49.9479 9.74219 49.4922 9.82031C49.0365 9.88542 48.6784 9.95052 48.418 10.0156C48.1055 10.0938 47.8711 10.1849 47.7148 10.2891C47.5716 10.4062 47.3958 10.582 47.1875 10.8164C47.0052 11.0117 46.7839 11.2786 46.5234 11.6172C46.263 11.9427 45.9635 12.3659 45.625 12.8867C45.625 12.457 45.6185 12.0729 45.6055 11.7344C45.5924 11.3828 45.5794 11.0898 45.5664 10.8555C45.5404 10.582 45.5208 10.3411 45.5078 10.1328C45.4818 9.92448 45.4492 9.69661 45.4102 9.44922C45.3841 9.22786 45.3385 8.97396 45.2734 8.6875C45.2214 8.38802 45.1628 8.05599 45.0977 7.69141Z" fill="#FB003F"/>
<path d="M68.934 24.9882H66.75V26.3561H67.578V30.0282H66.75V31.3961H69.87V30.0282H69.042V28.4081C69.042 27.8081 69.114 27.2922 69.594 26.8842C69.954 26.5602 70.386 26.4401 70.854 26.4161V24.9161C70.026 24.9521 69.306 25.3242 68.934 26.0802V24.9882ZM64.6131 29.5121C64.2531 30.0401 63.7011 30.2802 63.0651 30.2802C62.1531 30.2802 61.3371 29.6321 61.1451 28.7441H66.3291L66.3771 28.2281C66.3771 27.3161 66.1131 26.5001 65.4771 25.8281C64.8531 25.1921 63.9651 24.7961 63.0771 24.7961C61.1691 24.7961 59.7411 26.3202 59.7411 28.2162C59.7411 30.1002 61.2411 31.5641 63.1131 31.5641C64.4451 31.5641 65.6331 30.7361 66.1371 29.5121H64.6131ZM61.1331 27.6161C61.3131 26.7761 62.1411 26.1041 63.0051 26.1041C63.9531 26.1041 64.7691 26.6921 65.0211 27.6161H61.1331ZM58.1229 26.3561H59.2149V24.9882H58.1229V22.8281H56.6589V24.9882H55.6509V26.3561H56.6589V31.3961H59.2869V30.0282H58.1229V26.3561ZM54.0448 26.3561H55.1368V24.9882H54.0448V22.8281H52.5808V24.9882H51.5728V26.3561H52.5808V31.3961H55.2088V30.0282H54.0448V26.3561ZM50.3514 24.9882H48.0594V26.3561H48.8874V30.0282H48.0474V31.3961H51.1794V30.0282H50.3514V24.9882ZM50.3514 22.8281H48.8874V24.3761H50.3514V22.8281ZM46.7531 26.3561H47.6051V24.9882H44.5811V26.3561H45.3131L44.3291 29.3682H44.3171L43.0691 25.2281H41.8691L40.5251 29.3682H40.5131L39.5891 26.3561H40.2971V24.9882H37.3331V26.3561H38.1371L39.6731 31.3961H41.0411L42.4211 27.6282L43.5851 31.3961H45.0011L46.7531 26.3561ZM35.787 26.3561H36.879V24.9882H35.787V22.8281H34.323V24.9882H33.315V26.3561H34.323V31.3961H36.951V30.0282H35.787V26.3561ZM27.6981 33.7361L33.0741 22.8281H32.0061L26.6421 33.7361H27.6981ZM18.7922 31.9481C19.1282 33.3401 20.5202 34.0001 21.8522 34.0001C22.8002 34.0001 23.6762 33.7002 24.3602 33.0282C25.0922 32.2962 25.1642 31.5282 25.1642 30.5442V26.3561H25.9922V24.9882H23.8202V25.9242C23.3402 25.1802 22.5482 24.8801 21.6842 24.8801C19.9082 24.8801 18.4322 26.4162 18.4322 28.1802C18.4322 29.9682 19.8482 31.4922 21.6722 31.4922C22.5362 31.4922 23.2682 31.1682 23.7242 30.4242V30.6642C23.7242 31.2642 23.6882 31.6721 23.2802 32.1521C22.9562 32.5241 22.4282 32.7401 21.9242 32.7401C21.3602 32.7401 20.7362 32.4881 20.4842 31.9481H18.7922ZM19.9322 28.1681C19.9322 27.1001 20.8082 26.2241 21.8762 26.2241C22.9442 26.2241 23.8322 27.0881 23.8322 28.1561C23.8322 29.2361 22.9922 30.1361 21.8882 30.1361C20.7962 30.1361 19.9322 29.2601 19.9322 28.1681ZM14.8193 31.5641C16.7032 31.5641 18.1912 30.0281 18.1912 28.1561C18.1912 26.3321 16.7032 24.7961 14.8552 24.7961C12.9953 24.7961 11.4713 26.2961 11.4713 28.1681C11.4713 30.0161 12.9473 31.5641 14.8193 31.5641ZM14.8193 30.1241C13.7273 30.1241 12.9112 29.2121 12.9112 28.1561C12.9112 27.0881 13.7993 26.2361 14.8552 26.2361C15.9232 26.2361 16.7512 27.1481 16.7512 28.1921C16.7512 29.2601 15.8872 30.1241 14.8193 30.1241ZM10.2739 22.8281H7.98187V24.1962H8.80988V30.0282H7.92188V31.3961H11.1019V30.0282H10.2739V22.8281ZM2.292 22.8281H0V24.1962H0.828V30.0282H0V31.3961H2.292V30.4362C2.784 31.1322 3.588 31.4922 4.44 31.4922C5.28 31.4922 6.144 31.0721 6.708 30.4481C7.272 29.8361 7.572 29.0201 7.572 28.1921C7.572 26.3801 6.084 24.8921 4.272 24.8921C3.456 24.8921 2.748 25.2401 2.292 25.9121V22.8281ZM4.176 26.2241C5.244 26.2241 6.12 27.1001 6.12 28.1681C6.12 29.2121 5.292 30.1361 4.212 30.1361C3.108 30.1361 2.232 29.2721 2.232 28.1561C2.232 27.0881 3.108 26.2241 4.176 26.2241Z" fill="#0082FD"/>
</g>
<defs>
<clipPath id="clip0_203_4">
<rect width="71" height="34" fill="white"/>
</clipPath>
</defs>
</svg>
